<?xml version="1.0" encoding="UTF-8"?>
<svg id="Layer_2" data-name="Layer 2" xmlns="http://www.w3.org/2000/svg" viewBox="0 0 160.91 133.81">
  <defs>
    <style>
      .cls-1 {
        fill: none;
        stroke: #000;
        stroke-linecap: round;
        stroke-miterlimit: 10;
        stroke-width: 5px;
      }
    </style>
  </defs>
  <g id="Layer_1-2" data-name="Layer 1">
    <path class="cls-1" d="M5.6,68.26c1.69,8.2,4.01,16.26,6.93,24.1"/>
    <path class="cls-1" d="M2.57,43.38c.32,8.36,1.33,16.69,3.02,24.88"/>
    <path class="cls-1" d="M2.6,35.08c-.12,2.76-.13,5.53-.03,8.29"/>
    <path class="cls-1" d="M4.46,25.8c-1.09,2.98-1.72,6.11-1.86,9.29"/>
    <path class="cls-1" d="M9.14,18.87c-2.1,1.89-3.71,4.27-4.68,6.92"/>
    <path class="cls-1" d="M21.17,11.33c-4.41,1.81-8.48,4.36-12.03,7.55"/>
    <path class="cls-1" d="M32.91,7.36c-3.99,1.07-7.92,2.39-11.74,3.96"/>
    <path class="cls-1" d="M49.61,4.09c-5.63.71-11.21,1.8-16.7,3.27"/>
    <path class="cls-1" d="M80.25,2.57c-10.24-.27-20.48.24-30.64,1.52"/>
    <path class="cls-1" d="M103.27,4.92c-7.6-1.36-15.3-2.15-23.02-2.35"/>
    <path class="cls-1" d="M127.34,12.43c-7.68-3.5-15.76-6.02-24.07-7.51"/>
    <path class="cls-1" d="M140.74,20.11c-4.22-2.97-8.71-5.54-13.4-7.68"/>
    <path class="cls-1" d="M151.79,30.75c-3.12-4.09-6.85-7.67-11.05-10.63"/>
    <path class="cls-1" d="M157.07,40.49c-1.24-3.5-3.02-6.79-5.27-9.75"/>
    <path class="cls-1" d="M158.21,51.35c.48-3.66.09-7.37-1.14-10.85"/>
    <path class="cls-1" d="M155.78,64.28c1.04-4.26,1.85-8.58,2.42-12.94"/>
    <path class="cls-1" d="M152.12,76.93c1.4-4.16,2.62-8.38,3.67-12.65"/>
    <path class="cls-1" d="M145.35,93.27c2.63-5.29,4.89-10.74,6.77-16.34"/>
    <path class="cls-1" d="M136.23,108.41c3.44-4.79,6.49-9.85,9.11-15.14"/>
    <path class="cls-1" d="M129.78,115.99c2.35-2.35,4.51-4.89,6.45-7.59"/>
    <path class="cls-1" d="M121.87,121.92c2.91-1.59,5.57-3.59,7.91-5.93"/>
    <path class="cls-1" d="M110.39,126.61c3.99-1.13,7.84-2.7,11.48-4.69"/>
    <path class="cls-1" d="M98.24,129.34c4.1-.69,8.16-1.6,12.16-2.73"/>
    <path class="cls-1" d="M77.35,131.28c7-.13,13.98-.78,20.89-1.94"/>
    <path class="cls-1" d="M56.42,129.99c6.93.99,13.93,1.42,20.93,1.29"/>
    <path class="cls-1" d="M44.67,127.6c3.87,1.02,7.79,1.82,11.75,2.39"/>
    <path class="cls-1" d="M31.64,122.12c4.07,2.42,8.45,4.27,13.02,5.48"/>
    <path class="cls-1" d="M24.64,115.85c1.91,2.52,4.29,4.65,7,6.27"/>
    <path class="cls-1" d="M17.37,103.84c2,4.24,4.44,8.26,7.27,12"/>
    <path class="cls-1" d="M12.53,92.36c1.45,3.89,3.07,7.73,4.84,11.48"/>
  </g>
</svg>