<?xml version="1.0" encoding="UTF-8"?>
<svg id="Layer_2" xmlns="http://www.w3.org/2000/svg" viewBox="0 0 155.24 138.38">
  <defs>
    <style>
      .cls-1 {
        fill: none;
        stroke: #000;
        stroke-linecap: round;
        stroke-miterlimit: 10;
        stroke-width: 5px;
      }
    </style>
  </defs>
  <g id="Layer_1-2" data-name="Layer_1">
    <path class="cls-1" d="M21.36,16.05c-9.28,5.75-15.72,15.13-17.76,25.85"/>
    <path class="cls-1" d="M35.31,9.3c-4.87,1.76-9.54,4.02-13.94,6.75"/>
    <path class="cls-1" d="M50.59,5.11c-5.2.99-10.3,2.39-15.28,4.18"/>
    <path class="cls-1" d="M66.21,3.01c-5.24.42-10.46,1.12-15.62,2.1"/>
    <path class="cls-1" d="M88.75,2.8c-7.51-.46-15.04-.39-22.55.21"/>
    <path class="cls-1" d="M111.09,6.16c-7.33-1.77-14.81-2.89-22.34-3.35"/>
    <path class="cls-1" d="M124.65,10.46c-4.41-1.75-8.95-3.19-13.56-4.3"/>
    <path class="cls-1" d="M137.39,18.23c-3.77-3.3-8.08-5.92-12.74-7.77"/>
    <path class="cls-1" d="M146.81,29.81c-2.46-4.37-5.64-8.28-9.42-11.58"/>
    <path class="cls-1" d="M151.83,43.86c-.86-4.94-2.56-9.69-5.02-14.06"/>
    <path class="cls-1" d="M152.55,49.59c-.15-1.92-.39-3.83-.72-5.73"/>
    <path class="cls-1" d="M152.73,55.37c.03-1.93-.03-3.85-.18-5.78"/>
    <path class="cls-1" d="M152.36,61.13c.21-1.91.34-3.84.37-5.77"/>
    <path class="cls-1" d="M151.45,66.84c.39-1.89.7-3.79.91-5.71"/>
    <path class="cls-1" d="M147.04,82.01c1.86-4.93,3.34-10,4.41-15.17"/>
    <path class="cls-1" d="M140.32,96.31c2.61-4.58,4.85-9.37,6.72-14.3"/>
    <path class="cls-1" d="M131.46,109.39c3.29-4.12,6.25-8.5,8.86-13.08"/>
    <path class="cls-1" d="M113.31,125.66c6.92-4.38,13.05-9.88,18.15-16.27"/>
    <path class="cls-1" d="M103.78,130.63c3.31-1.39,6.5-3.06,9.53-4.98"/>
    <path class="cls-1" d="M93.55,133.96c3.49-.82,6.91-1.94,10.22-3.33"/>
    <path class="cls-1" d="M72.21,135.72c7.16.48,14.36-.11,21.34-1.76"/>
    <path class="cls-1" d="M47.54,129.93c7.85,3.26,16.19,5.22,24.67,5.79"/>
    <path class="cls-1" d="M26.42,115.94c6.08,5.97,13.25,10.72,21.12,13.99"/>
    <path class="cls-1" d="M17.65,104.91c2.46,4.02,5.41,7.72,8.77,11.03"/>
    <path class="cls-1" d="M11.31,92.48c1.79,4.3,3.91,8.46,6.34,12.43"/>
    <path class="cls-1" d="M5.81,76.34c1.47,5.5,3.31,10.89,5.5,16.14"/>
    <path class="cls-1" d="M2.78,59.51c.54,5.69,1.55,11.32,3.03,16.83"/>
    <path class="cls-1" d="M3.6,41.9c-1.1,5.8-1.38,11.73-.82,17.61"/>
  </g>
</svg>