<?xml version="1.0" encoding="UTF-8"?>
<svg id="Layer_2" data-name="Layer 2" xmlns="http://www.w3.org/2000/svg" viewBox="0 0 158.07 132.72">
  <defs>
    <style>
      .cls-1 {
        fill: none;
        stroke: #000;
        stroke-linecap: round;
        stroke-miterlimit: 10;
        stroke-width: 5px;
      }
    </style>
  </defs>
  <g id="Layer_1-2" data-name="Layer 1">
    <path class="cls-1" d="M117.59,10.79c-7.03-2.61-14.28-4.59-21.67-5.91"/>
    <path class="cls-1" d="M95.93,4.88c-7.39-1.32-14.86-2.1-22.37-2.31"/>
    <path class="cls-1" d="M73.56,2.57c-5.95-.17-11.9-.03-17.84.41"/>
    <path class="cls-1" d="M55.73,2.98c-5.93.44-11.85,1.15-17.72,2.13"/>
    <path class="cls-1" d="M38.01,5.1c-3.45.58-6.89,1.26-10.3,2.04"/>
    <path class="cls-1" d="M27.71,7.14c-3.41.78-6.76,1.81-10.02,3.06"/>
    <path class="cls-1" d="M17.69,10.21c-1.47.56-2.9,1.2-4.31,1.9"/>
    <path class="cls-1" d="M13.39,12.11c-3.19,1.6-5.73,4.24-7.19,7.5"/>
    <path class="cls-1" d="M6.19,19.6c-.78,1.74-1.43,3.55-1.92,5.39"/>
    <path class="cls-1" d="M4.27,24.99c-.9,3.35-1.45,6.79-1.64,10.26"/>
    <path class="cls-1" d="M2.63,35.25c-.19,3.47-.18,6.95.05,10.43"/>
    <path class="cls-1" d="M2.68,45.68c.29,4.44.77,8.86,1.45,13.25"/>
    <path class="cls-1" d="M4.13,58.93c.68,4.39,1.51,8.76,2.49,13.1"/>
    <path class="cls-1" d="M6.61,72.03c1.38,6.11,3.09,12.13,5.12,18.05"/>
    <path class="cls-1" d="M11.73,90.08c2.03,5.92,4.53,11.66,7.47,17.18"/>
    <path class="cls-1" d="M19.2,107.26c.94,1.77,1.93,3.51,2.98,5.22"/>
    <path class="cls-1" d="M22.18,112.48c1.04,1.71,2.22,3.33,3.53,4.84"/>
    <path class="cls-1" d="M25.7,117.33c1.49,1.73,3.32,3.13,5.38,4.1"/>
    <path class="cls-1" d="M31.09,121.43c2.08.99,4.22,1.87,6.39,2.63"/>
    <path class="cls-1" d="M37.48,124.06c4.32,1.52,8.73,2.73,13.21,3.65"/>
    <path class="cls-1" d="M50.69,127.71c4.3.88,8.64,1.54,13,1.98"/>
    <path class="cls-1" d="M63.69,129.69c19.99,2.03,40.14-1.82,57.98-11.08"/>
    <path class="cls-1" d="M121.67,118.61c2.03-1.05,3.91-2.38,5.59-3.93"/>
    <path class="cls-1" d="M127.26,114.68c1.82-1.69,3.48-3.55,4.93-5.57"/>
    <path class="cls-1" d="M132.19,109.11c.88-1.21,1.72-2.44,2.55-3.69"/>
    <path class="cls-1" d="M134.74,105.42c6.51-9.87,11.66-20.56,15.33-31.8"/>
    <path class="cls-1" d="M150.07,73.62c1.3-4,2.43-8.06,3.37-12.15"/>
    <path class="cls-1" d="M153.44,61.46c.91-3.94,1.58-7.93,2.01-11.95"/>
    <path class="cls-1" d="M155.45,49.52c.37-3.39-.09-6.81-1.32-9.99"/>
    <path class="cls-1" d="M154.13,39.53c-1.14-2.94-2.75-5.67-4.77-8.09"/>
    <path class="cls-1" d="M149.35,31.44c-2.03-2.43-4.27-4.68-6.69-6.71"/>
    <path class="cls-1" d="M142.66,24.72c-3.68-3.09-7.67-5.78-11.91-8.03"/>
    <path class="cls-1" d="M130.75,16.69c-4.25-2.26-8.64-4.23-13.15-5.9"/>
  </g>
</svg>